<svg xmlns="http://www.w3.org/2000/svg" width="80" height="80"><rect width="100%" height="100%" fill="#2b2b31"/><path fill="#242424" d="m0 0 20 20L40 0H30L20 10 10 0zm0 10v10h10zm40 0L30 20h10zm0 10v10l10-10zm20 0L40 40l20 20 20-20zm10 0 10 10V20zM60 30l10 10-10 10-10-10zM40 50v10h10zm0 10H30l10 10zm40-10L70 60h10zM0 60v10l10-10zm20 0L0 80h10l10-10 10 10h10z"/><path fill="#303030" d="M40 0v10l10 10h10zm20 20h10l10-10V0zM50 0l10 10L70 0zM10 20 0 30v10l20-20zm10 0 20 20V30L30 20zm20 20L20 60h10l10-10zM20 60 0 40v10l10 10zm0-30L10 40l10 10 10-10zm30 30L40 70v10l20-20zm10 0 20 20V70L70 60zm0 10L50 80h20z"/></svg>